# xmcd
# 
# Track frame offsets:
#     150
#     15110
#     29603
#     44546
# 
# Disc length: 786
# 
# Revision: 3
# Processed by: cddbd v1.5.2PL0 Copyright (c) Steve Scherf et al.
# Submitted via: fre:ac v1.0.17
# 
DISCID=26031004
DTITLE=喜屋武均 - うちなぁぐち　ラジオ体操　完全版
DYEAR=2013
DGENRE=Okinawan Music
TTITLE0=うちなぁぐちラジオ体操第一
TTITLE1=うちなぁぐちラジオ体操第二
TTITLE2=うちなぁぐちラジオ体操第一（三線アレンジ）
TTITLE3=うちなぁぐちラジオ体操第二（三線アレンジ）
EXTD=
EXTT0=
EXTT1=
EXTT2=
EXTT3=
PLAYORDER=
